# xmcd
#
# Track frame offsets:
#  182
#  19520
#  40240
#  63160
#  79640
#  102660
#  121495
#  141165
#  157152
#  175625
#  198050
#  218660
#  232927
#  254425
#  268382
#
# Disc length: 3975 seconds
#
# Revision: 0
# Processed by: cddbd v1.5.2PL0 Copyright (c) Steve Scherf et al.
# Submitted via: Collectorz.com_Music_Collector 6.9
#
DISCID=cc0f850f
DTITLE=Aaron Neville - The Tattoded Heart
DYEAR=1995
DGENRE=Soul
TTITLE0=Can't Stop My Heart From Loving You (The Rain Song)
TTITLE1=Show Some Emotion
TTITLE2=Everyday Of My Life
TTITLE3=Down Into Muddy Water
TTITLE4=Some Days Are Made For Rain
TTITLE5=Try (A Little Harder)
TTITLE6=Beautiful Night
TTITLE7=My Precious Star
TTITLE8=Why Should I Fall In Love
TTITLE9=Use Me
TTITLE10=For The Good Times
TTITLE11=In Your Eyes
TTITLE12=A Little Thing Called Life
TTITLE13=Crying In The Chapel
TTITLE14=With God On Our Side
EXTD=
EXTT0=
EXTT1=
EXTT2=
EXTT3=
EXTT4=
EXTT5=
EXTT6=
EXTT7=
EXTT8=
EXTT9=
EXTT10=
EXTT11=
EXTT12=
EXTT13=
EXTT14=
PLAYORDER=
